<svg xmlns="http://www.w3.org/2000/svg" viewBox="0 0 64 64" fill="none">
  <defs>
    <linearGradient id="g1" x1="0" y1="0" x2="1" y2="1">
      <stop offset="0%" stop-color="#a855f7"/>
      <stop offset="100%" stop-color="#06b6d4"/>
    </linearGradient>
    <linearGradient id="g2" x1="0" y1="0" x2="1" y2="1">
      <stop offset="0%" stop-color="#c084fc"/>
      <stop offset="100%" stop-color="#22d3ee"/>
    </linearGradient>
  </defs>
  <!-- Left bubble -->
  <path d="M10 28c0-11 9-20 20-20h0c11 0 20 9 20 20v0c0 11-9 20-20 20h-6l-8 8v-10.5C12.5 42.5 10 36 10 28z" fill="url(#g1)" opacity="0.85"/>
  <!-- Right bubble overlay -->
  <ellipse cx="38" cy="28" rx="16" ry="16" fill="url(#g2)" opacity="0.55"/>
  <!-- Waveform bars -->
  <g fill="white" opacity="0.95">
    <rect x="22" y="24" width="2" height="8" rx="1"/>
    <rect x="26" y="21" width="2" height="14" rx="1"/>
    <rect x="30" y="18" width="2" height="20" rx="1"/>
    <rect x="34" y="21" width="2" height="14" rx="1"/>
    <rect x="38" y="24" width="2" height="8" rx="1"/>
    <rect x="42" y="22" width="2" height="12" rx="1"/>
  </g>
</svg>